<svg width="35" height="38" viewBox="0 0 35 38" fill="none" xmlns="http://www.w3.org/2000/svg">
<path d="M27.7085 14.25H13.1252C11.5143 14.25 10.2085 15.6678 10.2085 17.4167V26.9167C10.2085 28.6656 11.5143 30.0833 13.1252 30.0833H27.7085C29.3193 30.0833 30.6252 28.6656 30.6252 26.9167V17.4167C30.6252 15.6678 29.3193 14.25 27.7085 14.25Z" stroke="#E4E9FF" stroke-width="2.75" stroke-linecap="round" stroke-linejoin="round"/>
<path d="M20.4167 25.3333C22.0275 25.3333 23.3333 23.9156 23.3333 22.1667C23.3333 20.4178 22.0275 19 20.4167 19C18.8058 19 17.5 20.4178 17.5 22.1667C17.5 23.9156 18.8058 25.3333 20.4167 25.3333Z" stroke="#E4E9FF" stroke-width="2.75" stroke-linecap="round" stroke-linejoin="round"/>
<path d="M24.7917 14.2498V11.0832C24.7917 10.2433 24.4844 9.43786 23.9374 8.844C23.3904 8.25013 22.6485 7.9165 21.875 7.9165H7.29167C6.51812 7.9165 5.77625 8.25013 5.22927 8.844C4.68229 9.43786 4.375 10.2433 4.375 11.0832V20.5832C4.375 21.423 4.68229 22.2285 5.22927 22.8223C5.77625 23.4162 6.51812 23.7498 7.29167 23.7498H10.2083" stroke="#E4E9FF" stroke-width="2.75" stroke-linecap="round" stroke-linejoin="round"/>
</svg>
