<svg width="35" height="35" viewBox="0 0 35 35" fill="none" xmlns="http://www.w3.org/2000/svg">
<path d="M21.875 26.25C24.2912 26.25 26.25 24.2912 26.25 21.875C26.25 19.4588 24.2912 17.5 21.875 17.5C19.4588 17.5 17.5 19.4588 17.5 21.875C17.5 24.2912 19.4588 26.25 21.875 26.25Z" stroke="#E4E9FF" stroke-width="2.75" stroke-linecap="round" stroke-linejoin="round"/>
<path d="M18.9583 25.521V32.0835L21.8749 29.896L24.7916 32.0835V25.521" stroke="#E4E9FF" stroke-width="2.75" stroke-linecap="round" stroke-linejoin="round"/>
<path d="M14.5833 27.7082H7.29167C6.51812 27.7082 5.77625 27.4009 5.22927 26.8539C4.68229 26.3069 4.375 25.5651 4.375 24.7915V10.2082C4.375 8.604 5.6875 7.2915 7.29167 7.2915H27.7083C28.4819 7.2915 29.2237 7.59879 29.7707 8.14578C30.3177 8.69276 30.625 9.43462 30.625 10.2082V24.7915C30.6245 25.303 30.4895 25.8053 30.2335 26.2481C29.9775 26.691 29.6096 27.0587 29.1667 27.3144" stroke="#E4E9FF" stroke-width="2.75" stroke-linecap="round" stroke-linejoin="round"/>
<path d="M8.75 13.125H26.25" stroke="#E4E9FF" stroke-width="2.75" stroke-linecap="round" stroke-linejoin="round"/>
<path d="M8.75 17.5H13.125" stroke="#E4E9FF" stroke-width="2.75" stroke-linecap="round" stroke-linejoin="round"/>
<path d="M8.75 21.875H11.6667" stroke="#E4E9FF" stroke-width="2.75" stroke-linecap="round" stroke-linejoin="round"/>
</svg>
