<svg width="38" height="38" viewBox="0 0 38 38" fill="none" xmlns="http://www.w3.org/2000/svg">
<path d="M19 33.25C26.8701 33.25 33.25 26.8701 33.25 19C33.25 11.1299 26.8701 4.75 19 4.75C11.1299 4.75 4.75 11.1299 4.75 19C4.75 26.8701 11.1299 33.25 19 33.25Z" stroke="white" stroke-width="2.25" stroke-linecap="round" stroke-linejoin="round"/>
<path d="M19.0001 33.25C22.4979 33.25 25.3334 26.8701 25.3334 19C25.3334 11.1299 22.4979 4.75 19.0001 4.75C15.5023 4.75 12.6667 11.1299 12.6667 19C12.6667 26.8701 15.5023 33.25 19.0001 33.25Z" stroke="white" stroke-width="2.25" stroke-linecap="round" stroke-linejoin="round"/>
<path d="M4.75 18.9998C4.75 22.4976 11.1299 25.3332 19 25.3332C26.8701 25.3332 33.25 22.4976 33.25 18.9998C33.25 15.502 26.8701 12.6665 19 12.6665C11.1299 12.6665 4.75 15.502 4.75 18.9998Z" stroke="white" stroke-width="2.25" stroke-linecap="round" stroke-linejoin="round"/>
</svg>
