<svg width="38" height="38" viewBox="0 0 38 38" fill="none" xmlns="http://www.w3.org/2000/svg">
<path d="M28.5 12.6665C29.7598 12.6665 30.968 13.1669 31.8588 14.0577C32.7496 14.9485 33.25 16.1567 33.25 17.4165C33.25 18.6763 32.7496 19.8845 31.8588 20.7753C30.968 21.6661 29.7598 22.1665 28.5 22.1665" stroke="white" stroke-width="2.75" stroke-linecap="round" stroke-linejoin="round"/>
<path d="M15.8333 12.6665V30.0832C15.8333 30.5031 15.6664 30.9058 15.3695 31.2028C15.0726 31.4997 14.6698 31.6665 14.2499 31.6665H12.6666C12.2467 31.6665 11.8439 31.4997 11.547 31.2028C11.2501 30.9058 11.0833 30.5031 11.0833 30.0832V22.1665" stroke="white" stroke-width="2.75" stroke-linecap="round" stroke-linejoin="round"/>
<path d="M19 12.6664L26.163 6.69725C26.3711 6.52389 26.6244 6.41344 26.893 6.37885C27.1617 6.34426 27.4346 6.38696 27.6799 6.50195C27.9252 6.61694 28.1326 6.79945 28.2778 7.02809C28.4231 7.25674 28.5001 7.52204 28.5 7.79292V27.0399C28.5001 27.3108 28.4231 27.5761 28.2778 27.8047C28.1326 28.0334 27.9252 28.2159 27.6799 28.3309C27.4346 28.4459 27.1617 28.4886 26.893 28.454C26.6244 28.4194 26.3711 28.3089 26.163 28.1356L19 22.1664H6.33333C5.91341 22.1664 5.51068 21.9996 5.21375 21.7027C4.91681 21.4057 4.75 21.003 4.75 20.5831V14.2498C4.75 13.8298 4.91681 13.4271 5.21375 13.1302C5.51068 12.8332 5.91341 12.6664 6.33333 12.6664H19" stroke="white" stroke-width="2.75" stroke-linecap="round" stroke-linejoin="round"/>
</svg>
