<svg width="38" height="38" viewBox="0 0 38 38" fill="none" xmlns="http://www.w3.org/2000/svg">
<path d="M14.2501 17.4167C17.7479 17.4167 20.5834 14.5811 20.5834 11.0833C20.5834 7.58553 17.7479 4.75 14.2501 4.75C10.7523 4.75 7.91675 7.58553 7.91675 11.0833C7.91675 14.5811 10.7523 17.4167 14.2501 17.4167Z" stroke="white" stroke-width="2.75" stroke-linecap="round" stroke-linejoin="round"/>
<path d="M4.75 33.25V30.0833C4.75 28.4036 5.41726 26.7927 6.60499 25.605C7.79272 24.4173 9.40363 23.75 11.0833 23.75H17.4167C19.0964 23.75 20.7073 24.4173 21.895 25.605C23.0827 26.7927 23.75 28.4036 23.75 30.0833V33.25" stroke="white" stroke-width="2.75" stroke-linecap="round" stroke-linejoin="round"/>
<path d="M30.0833 12.6665V22.1665M25.3333 17.4165H34.8333H25.3333Z" stroke="white" stroke-width="2.75" stroke-linecap="round" stroke-linejoin="round"/>
</svg>
