<svg width="42" height="42" viewBox="0 0 42 42" fill="none" xmlns="http://www.w3.org/2000/svg">
<rect width="42" height="42" rx="12" fill="black"/>
<path fill-rule="evenodd" clip-rule="evenodd" d="M25.0568 16.0233C23.6602 16.0233 21.0848 18.0853 18.962 20.7421C17.9367 19.7851 16.9605 19.1708 16.3157 19.1708C14.3291 19.1708 9.16364 26.3749 9.16364 30.1864C9.16364 31.7602 11.5709 31.7602 15.5209 31.7602C15.6952 31.7602 15.8696 31.7602 16.0436 31.7599H21.7604C22.7877 31.776 23.8981 31.7602 25.0571 31.7602C30.3237 31.7602 34.593 31.7602 34.593 30.1864C34.5927 25.358 27.7156 16.0233 25.0568 16.0233ZM11.9891 14.8145C13.5496 14.8145 14.8145 13.5496 14.8145 11.9891C14.8145 10.4286 13.5496 9.16364 11.9891 9.16364C10.4286 9.16364 9.16364 10.4286 9.16364 11.9891C9.16364 13.5496 10.4286 14.8145 11.9891 14.8145Z" fill="white"/>
</svg>
