<svg width="42" height="42" viewBox="0 0 42 42" fill="none" xmlns="http://www.w3.org/2000/svg">
<path fill-rule="evenodd" clip-rule="evenodd" d="M12 0C5.37258 0 0 5.37258 0 12V30C0 36.6274 5.37258 42 12 42H30C36.6274 42 42 36.6274 42 30V12C42 5.37258 36.6274 0 30 0H12ZM18.962 20.7421C21.0848 18.0853 23.6602 16.0233 25.0568 16.0233C27.7156 16.0233 34.5927 25.358 34.593 30.1864C34.593 31.7602 30.3238 31.7602 25.0571 31.7602H25.0571C24.6662 31.7602 24.2809 31.762 23.9024 31.7638C23.1586 31.7673 22.4412 31.7706 21.7604 31.7599H16.0436C15.8696 31.7602 15.6952 31.7602 15.5209 31.7602C11.5709 31.7602 9.16363 31.7602 9.16363 30.1864C9.16363 26.3749 14.3291 19.1708 16.3157 19.1708C16.9605 19.1708 17.9367 19.7851 18.962 20.7421ZM14.8145 11.9891C14.8145 13.5496 13.5496 14.8145 11.9891 14.8145C10.4286 14.8145 9.16363 13.5496 9.16363 11.9891C9.16363 10.4286 10.4286 9.16364 11.9891 9.16364C13.5496 9.16364 14.8145 10.4286 14.8145 11.9891Z" fill="white"/>
</svg>
